0
SECTION
2
HEADER
9
$INSUNITS
70
4
9
$ACADVER
1
AC1014
9
$HANDSEED
5
FFFF
0
ENDSEC
0
SECTION
2
TABLES
0
TABLE
2
VPORT
5
8
100
AcDbSymbolTable
0
ENDTAB
0
TABLE
2
LTYPE
5
5
100
AcDbSymbolTable
0
LTYPE
5
14
100
AcDbSymbolTableRecord
100
AcDbLinetypeTableRecord
2
BYBLOCK
70
0
0
LTYPE
5
15
100
AcDbSymbolTableRecord
100
AcDbLinetypeTableRecord
2
BYLAYER
70
0
0
ENDTAB
0
TABLE
2
LAYER
5
2
100
AcDbSymbolTable
70
2
0
LAYER
5
50
100
AcDbSymbolTableRecord
100
AcDbLayerTableRecord
2
0
70
0
6
CONTINUOUS
0
ENDTAB
0
TABLE
2
STYLE
5
3
100
AcDbSymbolTable
70
1
0
STYLE
5
11
100
AcDbSymbolTableRecord
100
AcDbTextStyleTableRecord
2
STANDARD
70
0
0
ENDTAB
0
TABLE
2
VIEW
5
6
100
AcDbSymbolTable
70
0
0
ENDTAB
0
TABLE
2
UCS
5
7
100
AcDbSymbolTable
70
0
0
ENDTAB
0
TABLE
2
APPID
5
9
100
AcDbSymbolTable
70
2
0
APPID
5
12
100
AcDbSymbolTableRecord
100
AcDbRegAppTableRecord
2
ACAD
70
0
0
ENDTAB
0
TABLE
2
DIMSTYLE
5
A
100
AcDbSymbolTable
70
1
0
ENDTAB
0
TABLE
2
BLOCK_RECORD
5
1
100
AcDbSymbolTable
70
1
0
BLOCK_RECORD
5
1F
100
AcDbSymbolTableRecord
100
AcDbBlockTableRecord
2
*MODEL_SPACE
0
BLOCK_RECORD
5
1B
100
AcDbSymbolTableRecord
100
AcDbBlockTableRecord
2
*PAPER_SPACE
0
ENDTAB
0
ENDSEC
0
SECTION
2
BLOCKS
0
BLOCK
5
20
100
AcDbEntity
100
AcDbBlockBegin
2
*MODEL_SPACE
0
ENDBLK
5
21
100
AcDbEntity
100
AcDbBlockEnd
0
BLOCK
5
1C
100
AcDbEntity
100
AcDbBlockBegin
2
*PAPER_SPACE
0
ENDBLK
5
1D
100
AcDbEntity
100
AcDbBlockEnd
0
ENDSEC
0
SECTION
2
ENTITIES
0
LINE
5
100
100
AcDbEntity
8
0
100
AcDbLine
10
4.9000000000000021
20
0.49999999999997435
30
0
11
4.9000000000000021
21
-17.500000000000231
31
0
0
LINE
5
101
100
AcDbEntity
8
0
100
AcDbLine
10
13.357017457952091
20
-15.837662740280809
30
0
11
13.357017457952091
21
-16.964757757845032
31
0
0
LINE
5
102
100
AcDbEntity
8
0
100
AcDbLine
10
7.4000000000000021
20
-14.48193164457507
30
-4.163336342344337e-16
11
7.4000000000000021
21
14.48193164457507
31
-4.163336342344337e-16
0
LINE
5
103
100
AcDbEntity
8
0
100
AcDbLine
10
-7.4000000000000021
20
-14.48193164457507
30
-4.163336342344337e-16
11
-7.4000000000000021
21
14.48193164457507
31
-4.163336342344337e-16
0
LINE
5
104
100
AcDbEntity
8
0
100
AcDbLine
10
3.9000000000000035
20
-18.500000000000231
30
0
11
-18.500000000176474
21
-18.499999999999972
31
0
0
LINE
5
105
100
AcDbEntity
8
0
100
AcDbLine
10
-4.8999999999992685
20
2.5000000000030767
30
0
11
-4.9000000000006452
21
17.499999999999535
31
0
0
LINE
5
106
100
AcDbEntity
8
0
100
AcDbLine
10
-3.9000000000007358
20
18.499999999999627
30
0
11
9.0000000000002807
21
18.500000000000814
31
0
0
LINE
5
107
100
AcDbEntity
8
0
100
AcDbLine
10
-8.9000000000011017
20
-1.4999999999994902
30
0
11
-21.499999999832045
21
-1.5000000000024327
31
0
0
LINE
5
108
100
AcDbEntity
8
0
100
AcDbLine
10
-22.499999999999449
20
-14.500000000171164
30
0
11
-22.50000000000059
21
-2.5000000001711649
31
0
0
ARC
5
109
100
AcDbEntity
8
0
100
AcDbCircle
10
-8.9000000000014676
20
2.5000000000027094
30
0
40
4.0000000000021991
210
-0
220
0
230
1
100
AcDbArc
50
-89.999999999994756
51
0
0
LWPOLYLINE
5
110
100
AcDbEntity
8
0
100
AcDbPolyline
90
4
70
1
43
0.0
10
0.90000000000000013
20
-8.5000000000000249
10
0.90000000000000013
20
-5.0000000000000249
42
0.99999999999999989
10
-0.90000000000000013
20
-5.0000000000000249
10
-0.90000000000000013
20
-8.5000000000000249
42
0.99999999999999989
0
LINE
5
111
100
AcDbEntity
8
0
100
AcDbLine
10
1.3311914475032858e-14
20
-9.400000000000027
30
0
11
1.3283395650791075e-14
21
-4.1000000000000245
31
0
0
LWPOLYLINE
5
112
100
AcDbEntity
8
0
100
AcDbPolyline
90
4
70
1
43
0.0
10
0.90000000000000013
20
11.499999999999984
10
0.90000000000000013
20
15.99999999999998
42
0.99999999999999989
10
-0.90000000000000013
20
15.99999999999998
10
-0.90000000000000013
20
11.499999999999984
42
0.99999999999999989
0
LINE
5
113
100
AcDbEntity
8
0
100
AcDbLine
10
1.327471990337406e-17
20
10.599999999999984
30
1.3877787807814457e-16
11
1.327471990337406e-17
21
16.899999999999981
31
0
0
ARC
5
114
100
AcDbEntity
8
0
100
AcDbCircle
10
-18.50000000017647
20
-17.500000000016222
30
0
40
0.99999999998374922
210
0
220
0
230
1
100
AcDbArc
50
225.00000000000546
51
269.99999999999983
0
ARC
5
115
100
AcDbEntity
8
0
100
AcDbCircle
10
3.9000000000000035
20
-17.500000000000231
30
0
40
0.99999999999999867
210
-0
220
0
230
1
100
AcDbArc
50
-90
51
0
0
ARC
5
116
100
AcDbEntity
8
0
100
AcDbCircle
10
-3.9000000000006443
20
17.499999999999627
30
0
40
1.0000000000000009
210
0
220
0
230
1
100
AcDbArc
50
90.000000000005244
51
180
0
ARC
5
117
100
AcDbEntity
8
0
100
AcDbCircle
10
-21.500000000000004
20
-14.50000000017107
30
0
40
0.99999999999944578
210
0
220
0
230
1
100
AcDbArc
50
180
51
225.00000000000554
0
ARC
5
118
100
AcDbEntity
8
0
100
AcDbCircle
10
-21.49999999983195
20
-2.5000000001710698
30
0
40
1.0000000001686371
210
0
220
0
230
1
100
AcDbArc
50
90.0000000000055
51
180
0
ARC
5
119
100
AcDbEntity
8
0
100
AcDbCircle
10
8.9000000000021995
20
0.49999999999997463
30
0
40
4.0000000000021974
210
0
220
0
230
1
100
AcDbArc
50
135
51
180
0
LINE
5
120
100
AcDbEntity
8
0
100
AcDbLine
10
10
20
17.50000000000118
30
0
11
10
21
8.0852813742394574
31
0
0
ARC
5
121
100
AcDbEntity
8
0
100
AcDbCircle
10
9.000000000000373
20
17.500000000001183
30
0
40
0.99999999999962785
210
-0
220
0
230
1
100
AcDbArc
50
0
51
90.000000000005286
0
LINE
5
122
100
AcDbEntity
8
0
100
AcDbLine
10
-19.20710678135146
20
-18.207106781191346
30
0
11
-22.207106781186088
21
-15.207106781357291
31
0
0
LINE
5
123
100
AcDbEntity
8
0
100
AcDbLine
10
6.0715728752544562
20
3.3284271247477188
30
0
11
9.4142135623730958
21
6.6710678118663598
31
0
0
ARC
5
124
100
AcDbEntity
8
0
100
AcDbCircle
10
8
20
8.0852813742394538
30
0
40
1.9999999999999998
210
0
220
0
230
1
100
AcDbArc
50
-44.99999999999995
51
0
0
ENDSEC
0
SECTION
2
OBJECTS
0
DICTIONARY
5
C
100
AcDbDictionary
3
ACAD_GROUP
350
D
3
ACAD_MLINESTYLE
350
17
0
DICTIONARY
5
D
100
AcDbDictionary
0
DICTIONARY
5
1A
330
C
100
AcDbDictionary
0
DICTIONARY
5
17
100
AcDbDictionary
0
ENDSEC
0
EOF
