0
SECTION
2
HEADER
9
$INSUNITS
70
4
9
$ACADVER
1
AC1014
9
$HANDSEED
5
FFFF
0
ENDSEC
0
SECTION
2
TABLES
0
TABLE
2
VPORT
5
8
100
AcDbSymbolTable
0
ENDTAB
0
TABLE
2
LTYPE
5
5
100
AcDbSymbolTable
0
LTYPE
5
14
100
AcDbSymbolTableRecord
100
AcDbLinetypeTableRecord
2
BYBLOCK
70
0
0
LTYPE
5
15
100
AcDbSymbolTableRecord
100
AcDbLinetypeTableRecord
2
BYLAYER
70
0
0
ENDTAB
0
TABLE
2
LAYER
5
2
100
AcDbSymbolTable
70
2
0
LAYER
5
50
100
AcDbSymbolTableRecord
100
AcDbLayerTableRecord
2
0
70
0
6
CONTINUOUS
0
ENDTAB
0
TABLE
2
STYLE
5
3
100
AcDbSymbolTable
70
1
0
STYLE
5
11
100
AcDbSymbolTableRecord
100
AcDbTextStyleTableRecord
2
STANDARD
70
0
0
ENDTAB
0
TABLE
2
VIEW
5
6
100
AcDbSymbolTable
70
0
0
ENDTAB
0
TABLE
2
UCS
5
7
100
AcDbSymbolTable
70
0
0
ENDTAB
0
TABLE
2
APPID
5
9
100
AcDbSymbolTable
70
2
0
APPID
5
12
100
AcDbSymbolTableRecord
100
AcDbRegAppTableRecord
2
ACAD
70
0
0
ENDTAB
0
TABLE
2
DIMSTYLE
5
A
100
AcDbSymbolTable
70
1
0
ENDTAB
0
TABLE
2
BLOCK_RECORD
5
1
100
AcDbSymbolTable
70
1
0
BLOCK_RECORD
5
1F
100
AcDbSymbolTableRecord
100
AcDbBlockTableRecord
2
*MODEL_SPACE
0
BLOCK_RECORD
5
1B
100
AcDbSymbolTableRecord
100
AcDbBlockTableRecord
2
*PAPER_SPACE
0
ENDTAB
0
ENDSEC
0
SECTION
2
BLOCKS
0
BLOCK
5
20
100
AcDbEntity
100
AcDbBlockBegin
2
*MODEL_SPACE
0
ENDBLK
5
21
100
AcDbEntity
100
AcDbBlockEnd
0
BLOCK
5
1C
100
AcDbEntity
100
AcDbBlockBegin
2
*PAPER_SPACE
0
ENDBLK
5
1D
100
AcDbEntity
100
AcDbBlockEnd
0
ENDSEC
0
SECTION
2
ENTITIES
0
LWPOLYLINE
5
100
100
AcDbEntity
8
0
100
AcDbPolyline
90
20
70
1
43
0.0
10
-8.5000000000000249
20
3.3000000000000003
10
-8.5000000000000249
20
1.0000000000000009
42
-0.41421356237309503
10
-9.5000000000000266
20
3.1760221581321488e-18
10
-17.500000000000021
20
0
42
0.41421356237309503
10
-18.500000000000025
20
-1.0000000000000036
10
-18.500000000000021
20
-8.9999999999999893
42
0.41421356237309503
10
-17.500000000000018
20
-9.9999999999999964
10
17.499999999999996
20
-9.9999999999999911
42
0.41421356237309503
10
18.499999999999989
20
-8.9999999999999964
10
18.499999999999986
20
-1.0000000000000049
42
0.41421356237309492
10
17.499999999999982
20
1.1738577896456745e-17
10
16.999999999999986
20
0
42
-0.41421356237309503
10
15.999999999999986
20
1.0000000000000009
10
15.99999999999998
20
3.2999999999999918
10
11.499999999999984
20
3.2999999999999936
10
11.499999999999986
20
1
42
-0.41421356237309503
10
10.499999999999986
20
2.6678586128310585e-18
10
-4.0000000000000222
20
1.3877787807814457e-16
42
-0.41421356237309492
10
-5.0000000000000222
20
0.99999999999999956
10
-5.0000000000000249
20
3.2999999999999998
0
LWPOLYLINE
5
101
100
AcDbEntity
8
0
100
AcDbPolyline
90
4
70
1
43
0.0
10
10.499999999999989
20
-1
10
17.499999999999993
20
-1.0000000000000011
10
17.499999999999982
20
-8.0000000000000053
10
10.499999999999975
20
-8.0000000000000018
0
LWPOLYLINE
5
102
100
AcDbEntity
8
0
100
AcDbPolyline
90
4
70
1
43
0.0
10
1.4999999999999747
20
-7.9999999999999991
10
1.4999999999999747
20
-0.99999999999999989
10
8.4999999999999751
20
-1
10
8.4999999999999751
20
-7.9999999999999991
0
LWPOLYLINE
5
103
100
AcDbEntity
8
0
100
AcDbPolyline
90
4
70
1
43
0.0
10
-17.500000000000025
20
-8.2999999999999989
10
-17.500000000000025
20
-0.99999999999999989
10
-8.5000000000000249
20
-1
10
-8.5000000000000249
20
-8.2999999999999989
0
LINE
5
104
100
AcDbEntity
8
0
100
AcDbLine
10
10.49999999999998
20
-4.5
30
0
11
17.499999999999986
21
-4.5000000000000018
31
0
0
LWPOLYLINE
5
105
100
AcDbEntity
8
0
100
AcDbPolyline
90
4
70
1
43
0.0
10
0.49999999999997463
20
-0.99999999999999989
10
0.49999999999997463
20
-8
10
-6.5000000000000258
20
-8
10
-6.5000000000000258
20
-1
0
ENDSEC
0
SECTION
2
OBJECTS
0
DICTIONARY
5
C
100
AcDbDictionary
3
ACAD_GROUP
350
D
3
ACAD_MLINESTYLE
350
17
0
DICTIONARY
5
D
100
AcDbDictionary
0
DICTIONARY
5
1A
330
C
100
AcDbDictionary
0
DICTIONARY
5
17
100
AcDbDictionary
0
ENDSEC
0
EOF
